<?xml version="1.0" standalone="no"?>
<!DOCTYPE svg PUBLIC "-//W3C//DTD SVG 20010904//EN"
 "http://www.w3.org/TR/2001/REC-SVG-20010904/DTD/svg10.dtd">
<svg version="1.0" xmlns="http://www.w3.org/2000/svg"
 width="904.000000pt" height="904.000000pt" viewBox="0 0 904.000000 904.000000"
 preserveAspectRatio="xMidYMid meet">
<metadata>
Created by potrace 1.14, written by Peter Selinger 2001-2017
</metadata>
<g transform="translate(0.000000,904.000000) scale(0.100000,-0.100000)"
fill="#000000" stroke="none">
<path d="M3965 8485 c-472 -20 -673 -39 -965 -91 -881 -159 -1509 -536 -1877
-1127 -312 -503 -513 -1593 -516 -2797 0 -500 45 -1041 143 -1688 54 -357 63
-401 127 -577 188 -524 559 -979 1028 -1262 333 -201 646 -303 1160 -378 280
-41 437 -45 1630 -45 1072 0 1138 1 1290 20 345 43 646 109 850 185 940 351
1508 1131 1658 2275 24 179 27 209 42 474 80 1375 11 2483 -196 3159 -230 749
-711 1278 -1419 1560 -393 157 -877 244 -1610 287 -286 18 -992 20 -1345 5z
m1219 -2888 c61 -42 115 -111 444 -573 107 -149 204 -277 218 -284 21 -12 27
-11 45 5 19 18 227 318 458 663 127 188 150 207 257 207 64 0 77 -3 115 -30
27 -19 54 -51 72 -85 54 -102 29 -174 -140 -405 -215 -295 -544 -784 -566
-842 -20 -55 -21 -79 -27 -483 -6 -467 -5 -466 -69 -525 -100 -95 -271 -61
-330 65 -14 30 -17 97 -21 490 l-5 455 -31 65 c-31 67 -120 189 -293 405 -143
177 -401 533 -422 579 -45 104 -33 176 41 248 80 77 181 95 254 45z m-2286 -1
c451 -88 733 -418 823 -961 8 -46 13 -156 13 -260 0 -146 -4 -199 -22 -281
-74 -345 -233 -599 -477 -764 -87 -59 -141 -82 -255 -113 -69 -18 -115 -20
-575 -25 -639 -5 -668 -1 -725 113 l-25 50 0 1050 0 1050 24 48 c27 55 66 86
130 104 72 20 976 11 1089 -11z m1602 11 c13 -7 35 -28 47 -46 l23 -34 0
-1119 c0 -1016 -2 -1123 -16 -1154 -27 -56 -54 -64 -220 -64 l-146 0 -34 34
-34 34 0 1136 c0 1244 -3 1177 58 1210 35 20 285 22 322 3z m3026 -31 l34 -34
0 -1145 c0 -1123 0 -1145 -20 -1169 -33 -43 -66 -50 -218 -46 -133 3 -142 4
-166 27 -15 14 -31 41 -37 60 -7 24 -9 406 -7 1151 3 1208 0 1138 57 1173 21
13 56 17 175 17 l148 0 34 -34z"/>
<path d="M2125 5175 l-25 -24 0 -754 c0 -729 1 -756 19 -778 l19 -24 289 0
c413 1 491 18 601 127 100 100 177 244 223 423 33 126 33 359 2 486 -64 256
-180 446 -311 513 -98 50 -151 56 -485 56 l-308 0 -24 -25z"/>
</g>
</svg>
